<svg width="100%" height="100%" xmlns="http://www.w3.org/2000/svg" version="1.1" viewBox="7 18 86 54"><g id="svgf-logo"><path d="M40.297852 44.544922, 41.147461 40.443359, 56.967774 40.443359, 56.264649 44.544922 Z" fill="#5d3a7e" /><path d="m 39.389648,71.556641 5.654297,-27.011719 l 0.849609,-4.101563 l 0.908203,-4.423828 q 0.703125,-3.310547 1.435547,-4.77539 0.761718,-1.464844 2.43164,-2.402344 1.699219,-0.966797 4.59961,-0.966797 2.021484,0 5.859375,0.849609 l -0.966797,4.628907 q -2.695313,-0.703125 -4.511719,-0.703125 -1.552734,0 -2.373047,0.791015 -0.791015,0.761719 -1.376953,3.66211 l -0.703125,3.339843 l -0.84961,4.101563 l -5.654297,27.011719 Z" fill="#815aa8" /><path d="M43 25 L61 25 L54 18 L51.88 20.12 L53.758 22 L43 22 Z" fill="#815aa8" /><rect x="7" y="50" width="30" height="6" transform="rotate(-45 7, 50)" fill="#5d3a7e" /><rect x="7" y="44" width="30" height="6" transform="rotate(45 7, 50)" fill="#815aa8" /><rect x="63" y="50" width="30" height="6" transform="rotate(45 93, 50)" fill="#5d3a7e" /><rect x="63" y="44" width="30" height="6" transform="rotate(-45 93, 50)" fill="#815aa8" /></g></svg>
